<svg xmlns="http://www.w3.org/2000/svg" width="134" height="28" fill="none" viewBox="0 0 134 28"><g clip-path="url(#a)"><path fill="#39775f" d="M27.306 26.806a.5.5 0 0 1-.5.5H2.774a.5.5 0 0 1-.354-.854L26.452 2.42a.5.5 0 0 1 .854.354z"/><path fill="#489ac2" d="M.854 24.886A.5.5 0 0 1 0 24.532V.5a.5.5 0 0 1 .5-.5h24.033a.5.5 0 0 1 .354.854z"/></g><path fill="#262a2c" d="M86.11 12.087q-1.28 0-2.21-.532a3.6 3.6 0 0 1-1.425-1.518q-.498-.987-.498-2.322 0-1.313.498-2.305a3.77 3.77 0 0 1 1.408-1.551q.904-.56 2.122-.56.787 0 1.485.255.704.25 1.241.776.543.526.853 1.34.31.81.31 1.929v.615h-6.976V6.862h5.054a2.16 2.16 0 0 0-.25-1.025 1.8 1.8 0 0 0-.681-.715 1.9 1.9 0 0 0-1.008-.26q-.615 0-1.081.299-.465.294-.726.775-.255.477-.26 1.048v1.18q0 .743.271 1.274.271.526.76.81.487.276 1.14.276.44 0 .793-.121.355-.128.615-.372t.394-.604l1.872.21a2.9 2.9 0 0 1-.676 1.297q-.493.549-1.263.854-.77.3-1.762.299M76.297 12.07a3.2 3.2 0 0 1-1.796-.515q-.792-.515-1.252-1.496-.46-.98-.46-2.383 0-1.418.465-2.393.47-.98 1.27-1.48a3.26 3.26 0 0 1 1.778-.504q.748 0 1.23.255.482.249.765.604.282.349.438.66h.083V.572h2.01V11.92h-1.972V10.58h-.121a3.4 3.4 0 0 1-.45.66 2.5 2.5 0 0 1-.775.586q-.482.244-1.214.244m.56-1.645q.636 0 1.085-.344.45-.35.682-.97t.232-1.446q0-.825-.232-1.435-.228-.61-.676-.947-.444-.338-1.092-.338-.67 0-1.12.349-.448.348-.675.964-.227.615-.227 1.407 0 .798.227 1.424.233.62.681.981.454.355 1.114.355M69.692 11.92V3.41h2.006v8.51zm1.009-9.718a1.17 1.17 0 0 1-.82-.316 1.02 1.02 0 0 1-.344-.77q0-.455.344-.77a1.16 1.16 0 0 1 .82-.322q.481 0 .82.322.343.315.343.77 0 .449-.343.77-.339.316-.82.316M68.48 5.66l-1.828.199a1.5 1.5 0 0 0-.272-.52 1.35 1.35 0 0 0-.51-.394q-.321-.15-.786-.15-.627 0-1.053.272-.421.27-.416.703a.74.74 0 0 0 .272.604q.283.233.93.383l1.453.31q1.207.26 1.795.825.593.565.598 1.48a2.3 2.3 0 0 1-.47 1.418q-.46.61-1.28.953-.82.344-1.885.344-1.562 0-2.515-.654-.954-.659-1.136-1.834l1.956-.188q.133.576.565.87.432.293 1.125.293.715 0 1.147-.293.438-.294.438-.726a.76.76 0 0 0-.283-.604q-.277-.24-.864-.366l-1.452-.305q-1.224-.255-1.812-.859-.588-.61-.582-1.54-.005-.787.427-1.363.438-.582 1.213-.898.781-.321 1.801-.321 1.496 0 2.355.637.864.638 1.07 1.723M55.868 12.093q-.81 0-1.458-.289a2.4 2.4 0 0 1-1.02-.864q-.37-.57-.37-1.407 0-.72.265-1.192.267-.471.726-.753a3.7 3.7 0 0 1 1.036-.427q.583-.15 1.203-.216.748-.078 1.213-.139.465-.066.676-.199.216-.138.216-.427v-.033q0-.625-.37-.97-.372-.343-1.07-.343-.737 0-1.17.321a1.6 1.6 0 0 0-.576.76l-1.872-.267a3 3 0 0 1 .731-1.296q.51-.526 1.247-.787a4.8 4.8 0 0 1 1.629-.266q.615 0 1.224.144.61.144 1.114.477.504.327.809.892.31.564.31 1.413v5.696h-1.928v-1.17h-.066a2.5 2.5 0 0 1-.516.665 2.5 2.5 0 0 1-.825.494 3.3 3.3 0 0 1-1.158.182m.52-1.474q.604 0 1.048-.239.442-.244.681-.642.244-.399.244-.87V7.865a1 1 0 0 1-.321.144 5 5 0 0 1-.5.116q-.276.05-.548.089l-.47.066q-.45.06-.804.2a1.33 1.33 0 0 0-.56.388q-.205.243-.205.631 0 .555.405.837.405.283 1.03.283M48.561 12.087q-1.28 0-2.21-.532a3.6 3.6 0 0 1-1.425-1.518q-.498-.987-.498-2.322 0-1.313.498-2.305a3.77 3.77 0 0 1 1.408-1.551q.903-.56 2.122-.56.787 0 1.485.255.704.25 1.241.776.544.526.853 1.34.31.81.31 1.929v.615H45.37V6.862h5.053a2.16 2.16 0 0 0-.25-1.025 1.8 1.8 0 0 0-.68-.715 1.9 1.9 0 0 0-1.01-.26q-.615 0-1.08.299-.465.294-.726.775-.255.477-.26 1.048v1.18q0 .743.271 1.274.271.526.76.81.487.276 1.141.276.438 0 .792-.121.355-.128.615-.372t.394-.604l1.873.21a2.9 2.9 0 0 1-.676 1.297q-.494.549-1.264.854-.77.3-1.762.299M36.668 11.92V.574h2.056v9.624h4.998v1.724z"/><g fill="#262a2c" opacity=".5"><path d="m128.088 24.439-.005-2.422h.321l3.059-3.418h2.344l-3.763 4.189h-.415zm-1.828 2.67V15.763h2.006V27.11zm5.341 0-2.77-3.873 1.352-1.412L134 27.11zM120.697 27.11v-8.511h1.945v1.418h.089q.233-.737.798-1.136.57-.405 1.302-.404.166 0 .371.017.21.01.349.038v1.846a2 2 0 0 0-.404-.078 4 4 0 0 0-.527-.039q-.548 0-.986.238a1.75 1.75 0 0 0-.682.649 1.83 1.83 0 0 0-.249.958v5.004zM114.811 27.281a3.55 3.55 0 0 1-1.457-.288 2.4 2.4 0 0 1-1.02-.864q-.37-.57-.371-1.408 0-.72.266-1.19.266-.472.726-.754t1.036-.427q.582-.15 1.202-.216a48 48 0 0 0 1.214-.139q.465-.066.676-.2.216-.137.216-.426v-.033q0-.625-.371-.97-.372-.343-1.07-.343-.737 0-1.169.321a1.6 1.6 0 0 0-.576.76l-1.873-.267a3 3 0 0 1 .731-1.296q.51-.526 1.247-.787a4.8 4.8 0 0 1 1.629-.266q.615 0 1.225.144.609.144 1.113.477.505.326.809.892.31.564.311 1.413v5.696h-1.929v-1.17h-.066a2.5 2.5 0 0 1-.515.665 2.5 2.5 0 0 1-.826.494 3.3 3.3 0 0 1-1.158.182m.521-1.473q.603 0 1.047-.239.444-.244.682-.642.243-.399.243-.87v-1.003a.9.9 0 0 1-.321.144 5 5 0 0 1-.499.116 15 15 0 0 1-.548.089l-.471.066q-.448.06-.804.2a1.33 1.33 0 0 0-.559.388q-.205.244-.205.631 0 .555.404.837.404.283 1.031.283M103.186 27.11V15.762h4.255q1.308 0 2.194.487a3.25 3.25 0 0 1 1.347 1.341q.46.848.46 1.928 0 1.092-.46 1.94a3.3 3.3 0 0 1-1.358 1.335q-.897.482-2.211.482h-2.82v-1.69h2.543q.765 0 1.252-.266.489-.265.721-.731.238-.465.238-1.07 0-.604-.238-1.063a1.6 1.6 0 0 0-.726-.715q-.487-.26-1.258-.26h-1.884v9.63zM98.639 20.848l-1.829.2a1.5 1.5 0 0 0-.271-.521 1.35 1.35 0 0 0-.51-.393q-.321-.15-.787-.15-.626 0-1.053.271-.42.272-.415.704a.74.74 0 0 0 .271.604q.283.233.931.383l1.452.31q1.208.26 1.795.825.593.565.599 1.48a2.3 2.3 0 0 1-.472 1.418q-.46.61-1.28.953-.82.345-1.883.344-1.562 0-2.516-.654-.953-.659-1.136-1.834l1.956-.188q.133.576.565.87.432.293 1.125.293.715 0 1.147-.294.438-.293.438-.725a.76.76 0 0 0-.283-.604q-.277-.24-.864-.366l-1.452-.305q-1.224-.255-1.812-.859-.587-.61-.582-1.54-.005-.787.427-1.363.438-.582 1.213-.898.782-.321 1.801-.321 1.497 0 2.355.637.864.638 1.07 1.723M90.7 20.848l-1.83.2a1.5 1.5 0 0 0-.27-.521 1.35 1.35 0 0 0-.51-.393q-.322-.15-.787-.15-.627 0-1.053.271-.421.272-.416.704a.74.74 0 0 0 .272.604q.282.233.93.383l1.452.31q1.209.26 1.796.825.592.565.598 1.48a2.3 2.3 0 0 1-.471 1.418q-.46.61-1.28.953-.82.345-1.884.344-1.562 0-2.515-.654-.953-.659-1.136-1.834l1.956-.188q.132.576.565.87.432.293 1.125.293.714 0 1.147-.294.437-.293.437-.725a.76.76 0 0 0-.282-.604q-.277-.24-.865-.366l-1.451-.305q-1.225-.255-1.812-.859-.588-.61-.582-1.54-.006-.787.427-1.363.437-.582 1.213-.898.78-.321 1.8-.321 1.497 0 2.356.637.864.638 1.07 1.723M79.114 27.276q-1.28 0-2.21-.532a3.6 3.6 0 0 1-1.425-1.518q-.498-.987-.498-2.322 0-1.313.498-2.305a3.77 3.77 0 0 1 1.407-1.551q.904-.56 2.123-.56.787 0 1.485.255.703.25 1.24.776.544.526.854 1.34.31.81.31 1.929v.615h-6.976V22.05h5.054a2.16 2.16 0 0 0-.25-1.025 1.8 1.8 0 0 0-.681-.715 1.9 1.9 0 0 0-1.009-.26q-.615 0-1.08.299-.465.293-.726.775-.255.477-.26 1.048v1.18q0 .743.271 1.274.271.526.76.81.487.276 1.14.276.439 0 .793-.122.355-.127.615-.37.261-.245.393-.605l1.873.21a2.9 2.9 0 0 1-.676 1.297q-.493.548-1.263.854-.77.3-1.762.299M68.469 22.123v4.987h-2.006v-8.511h1.917v1.446h.1q.294-.715.936-1.136.648-.42 1.602-.421.881 0 1.534.377.66.376 1.02 1.091.366.715.36 1.735v5.419h-2.006V22q0-.852-.443-1.334-.437-.483-1.214-.483-.526 0-.936.233-.405.228-.637.66-.228.432-.227 1.047M63.018 27.11v-8.511h2.006v8.51zm1.009-9.72a1.17 1.17 0 0 1-.82-.315 1.02 1.02 0 0 1-.344-.77q0-.455.344-.77a1.16 1.16 0 0 1 .82-.322q.482 0 .82.322.344.315.344.77 0 .449-.344.77-.338.316-.82.316M61.805 20.848l-1.829.2a1.5 1.5 0 0 0-.271-.521 1.35 1.35 0 0 0-.51-.393q-.321-.15-.787-.15-.625 0-1.053.271-.42.272-.415.704a.74.74 0 0 0 .271.604q.283.233.931.383l1.452.31q1.208.26 1.795.825.593.565.598 1.48a2.3 2.3 0 0 1-.47 1.418q-.46.61-1.28.953-.82.345-1.884.344-1.562 0-2.516-.654-.953-.659-1.136-1.834l1.956-.188q.133.576.565.87.432.293 1.125.293.715 0 1.147-.294.438-.293.438-.725a.76.76 0 0 0-.283-.604q-.277-.24-.864-.366l-1.452-.305q-1.224-.255-1.812-.859-.586-.61-.582-1.54-.005-.787.427-1.363.438-.582 1.214-.898.78-.321 1.8-.321 1.497 0 2.355.637.865.638 1.07 1.723M51.636 23.53V18.6h2.005v8.51h-1.944v-1.512h-.09a2.56 2.56 0 0 1-.947 1.17q-.654.453-1.612.454-.837 0-1.48-.372a2.6 2.6 0 0 1-.997-1.091q-.36-.72-.36-1.74v-5.42h2.006v5.11q0 .808.443 1.285t1.164.477q.442 0 .858-.216.416-.217.682-.643.272-.433.272-1.08M36.668 27.11V15.762h4.344q1.23 0 2.045.388.819.383 1.224 1.047.41.664.41 1.507 0 .693-.266 1.186-.265.487-.714.792-.45.305-1.003.438v.11q.603.034 1.158.372.56.332.914.942.355.61.355 1.474 0 .88-.427 1.584-.427.7-1.286 1.103-.858.405-2.16.405zm2.056-1.718h2.21q1.12 0 1.613-.427a1.4 1.4 0 0 0 .499-1.108 1.7 1.7 0 0 0-.959-1.551q-.46-.24-1.097-.239h-2.266zm0-4.804h2.033q.532 0 .959-.194.427-.2.67-.56.25-.365.25-.864 0-.66-.466-1.086-.46-.427-1.369-.427h-2.077z"/></g><defs><clipPath id="a"><rect width="27.306" height="27.306" fill="#fff" rx=".993"/></clipPath></defs></svg>